<?xml version="1.0" encoding="UTF-8"?>
<svg id="Layer_2" data-name="Layer 2" xmlns="http://www.w3.org/2000/svg" viewBox="0 0 456.65 514.59">
  <defs>
    <style>
      .cls-1 {
        fill: #1e4058;
      }

      .cls-2 {
        fill: #fff;
      }

      .cls-3 {
        fill: #e2a749;
      }
    </style>
  </defs>
  <g id="Layer_1-2" data-name="Layer 1">
    <path class="cls-2" d="M456.36,324.01c.04,14.79.43,29.87-.22,44.61-.53,12.21-8.37,21.41-18.32,27.58-12.73,7.91-25.65,15.38-38.58,22.93-17.42,10.21-34.76,20.55-52.03,31.01l-67.86,40.49c-13.1,7.79-31.7,21-46.04,23.86-6.37.26-12.55.23-18.34-2.72-13.02-6.62-26.17-14.95-38.71-22.47l-67.28-40.05-62.99-37.02C26.72,400.9-.85,390.29.02,364.58c.27-8.06.2-16.16.22-24.23v-64.94S.24,187.81.24,187.81c0-14.43-.42-29.7.47-44.04.57-9.26,9.06-20.34,16.8-25.08,10.61-6.51,21.78-12.94,32.65-19.33,22.41-13.27,44.88-26.43,67.43-39.46l62.4-36.7C190.35,17.1,214.06,1.56,224.66.14c15.23-1.44,28.04,8.83,40.65,16.33,14.53,8.72,29.11,17.35,43.75,25.91l84.47,49.48c14.9,8.65,29.93,17.06,44.7,25.94,22.21,13.35,18.12,35.59,18.12,57.84l-.02,66.75.03,81.62Z"/>
    <g>
      <path class="cls-1" d="M456.33,242.39l.02-66.75c0-22.25,4.09-44.49-18.12-57.84-14.77-8.88-29.8-17.29-44.7-25.94l-84.47-49.48c-14.64-8.56-29.22-17.19-43.75-25.91C252.7,8.97,239.89-1.3,224.66.14c-10.6,1.42-34.31,16.96-44.67,23.06l-62.4,36.7c-22.55,13.03-45.02,26.19-67.43,39.46-10.87,6.39-22.04,12.82-32.65,19.33-7.74,4.74-16.23,15.82-16.8,25.08-.89,14.34-.47,29.61-.47,44.04v87.6s0,64.94,0,64.94c-.02,8.07.05,16.17-.22,24.23-.87,25.71,26.7,36.32,45.97,47.65l62.99,37.02,67.28,40.05c12.54,7.52,25.69,15.85,38.71,22.47,5.79,2.95,11.97,2.98,18.34,2.72,14.34-2.86,32.94-16.07,46.04-23.86l67.86-40.49c17.27-10.46,34.61-20.8,52.03-31.01,12.93-7.55,25.85-15.02,38.58-22.93,9.95-6.17,17.79-15.37,18.32-27.58.65-14.74.26-29.82.22-44.61l-.03-81.62ZM438.78,365.41c-.38,6.07-5.59,13.13-10.76,16.34-14.51,9.01-29.21,17.84-43.92,26.57l-61.82,36.96-51.86,31.01c-9.69,5.82-29.25,19.07-39.48,20.82-10.6.3-14.26-3.52-22.88-8.68l-20.27-12.06-69.3-40.98-58.53-34.74c-11.06-6.52-22.32-12.88-32.97-20.07-10.72-7.23-9.1-17.19-9.18-28.37-.03-5.2.02-10.51.01-15.75l-.07-63.83.03-81.55c.01-13.22-.29-26.62.24-39.8.35-8.78,7.6-16.64,14.69-21.03,11.85-7.34,24.02-14.13,36.1-21.1l51.16-30.09c21.96-12.99,44-25.87,66.1-38.63,10.81-6.28,21.72-12.8,32.65-18.87,3.07-1.71,5.58-1.99,8.99-2.4,3.39-.28,6.57.56,9.53,2.15,11.34,6.11,22.68,12.86,33.8,19.37l61.94,36.35,55.92,32.95c12.46,7.24,25.31,14.3,37.42,22.08,3.96,2.54,11.06,10.57,11.71,15.11,1.98,14,1.2,30.22,1.2,44.62v138.77c-.01,11.44.26,23.42-.45,34.85Z"/>
      <path class="cls-1" d="M290.03,311.94c-20.88-7.72-43.01-12.15-64.96-15.42-7.98-1.19-16.28-1.49-24.14-2.74l104.19-115.22,33.31-36.3c5.14-5.67,10.34-11.28,15.29-17.12,2.57-3.04,3.46-6.77.94-10.17-6.06-3.27-30-2.04-37.91-2.02l-55.81.04-105.02-.02c-15.42,0-31.63-.61-46.91.75-2.06.18-4.7,18.07-5.15,20.51-2.03,10.95-4.96,21.98-6.61,32.97,4.74-.61,11.14-1.25,15.67-2.34,9.31-11.55,16.08-23.82,32.53-25.26,8.31-.73,16.19-.53,24.5-.53h38.38s49.71,0,49.71,0c12.49.01,25.93-.23,38.35,1.22-2.83,4.4-9.34,11.15-13.03,15.1-6.27,6.62-12.49,13.28-18.68,19.97-18.78,20.2-37.67,40.29-56.68,60.28-15.42,16.46-31.05,32.74-46.86,48.83-3.75,3.76-26.16,26.3-29.4,27.06-.87-1.06-1.24-1.91-1.5-3.27-2.64-14.01,1.08-94.65-1.8-98.91-1.94-2.88-33.71-18.37-38.9-20.42-5.86,2.56-14.67,7.97-20.38,11.26-5.72,3.3-14.02,7.85-19.33,11.52-.56,12.51-.18,27.24-.17,39.89l-.07,68.98c-.03,9.25.23,21.04-.2,30.02-6.35,7.73-27.62,13.84-11.49,23.52,11.23,6.74,22.63,13.16,33.95,19.74l64.92,37.95,20.06,11.61c1.66.96,8.55,4.88,9.58,5.81,17.44,9.42,34.11,20.56,51.2,30.19,9.75,6,15.56,4.11,24.88-1.35,6.3-3.69,12.62-7.45,18.88-11.2,12.39-6.73,25.34-15.09,37.6-22.37,21.94-12.81,43.79-25.79,65.53-38.96,11.61-7.08,23.29-14.06,35.03-20.92,6.87-4.02,18.29-10.31,24.04-15.11.93-3.63,1.08-4.78,1.37-8.51-46.33-.34-92.74-33.45-134.91-49.06ZM76.23,285.22l-10.76,1.12-.96.05c-1.22-1.57-.69-20.97-.68-24.46,3.31,0,7.94-.48,11.35-.73h.58c1,1.4.49,20.75.47,24.02ZM76.28,246.5c-4.18.3-7.65.51-11.78,1.26-.53-3.31-.52-20.34-.59-24.65,3.94-.27,7.89-.56,11.83-.86l.51.45c.26,7.63.06,16.1.03,23.8ZM113.77,227.44l.1,17.82c-4.71-1.16-10.73-3.11-15.42-4.54-.18-6.26-.05-12.35-.44-18.64,3.87.88,11.86,3.93,15.76,5.36ZM97.86,280.64v-19.38c4.46.7,11.73,2.85,16.3,4.06-.31,4.64.05,11.55.15,16.38-5.49-.23-10.83-.91-16.45-1.06Z"/>
      <path class="cls-3" d="M166.41,449.23c25.37-13.76,59.53-35.3,62.2-66.96,3.01-35.71-36.38-52.87-64.71-61.19-3.14-.92-12.15-2.4-13.78-4.34,1.79-3.1,16.28-3.16,20.01-3.41,37.67-2.59,79.96,4.19,114.69,19.16,25.26,10.89,53.69,30.06,69.53,52.67,4.64,7.03,7.09,12.66,10.14,20.39-21.74,13.16-43.58,26.15-65.53,38.96-12.25,7.28-25.21,15.64-37.6,22.37-6.26,3.76-12.58,7.52-18.88,11.2-9.32,5.46-15.13,7.35-24.88,1.35-17.09-9.64-33.76-20.77-51.2-30.19Z"/>
      <path class="cls-1" d="M261.92,444.27c2.96-.5,15.05-2.38,17.24-1.26,1.83,4.82-17.01,19.55-17.79,23.86-6.26,3.76-12.58,7.52-18.88,11.2-9.32,5.46-15.13,7.35-24.88,1.35,4.46-3.63,13.21-8.52,18.62-12.48,10.14-7.44,16.76-14.12,25.7-22.67Z"/>
      <path class="cls-1" d="M280.78,382.59c5.1-.24,8.89-.24,13.91.58,2.68,8.01,6.17,38.11-2.79,42.45-5.59-.09-11.17-.35-16.75-.76,7.8-17.24,8.41-23.4,5.63-42.28Z"/>
      <path class="cls-1" d="M256.26,345.15c2.73-.16,5.7-.1,8.45-.1,5.09,2.9,22.92,18.04,22.26,24.09l-1.24.74c-3.06.08-6.25.06-9.32.08-3.59-3.82-6.81-8.57-10.9-12.74-2.62-2.67-9.92-8.8-11.09-10.47l.16-.81,1.67-.78Z"/>
      <path class="cls-1" d="M214.75,327.11c7.47-.77,26.87,2.87,31.3,9.49l-.82.94c-2.1.73-4.67,1.35-6.64.29-4.74-2.55-20.82-6.84-24.02-9.53l.16-1.19Z"/>
    </g>
  </g>
</svg>